<?xml version="1.0" encoding="UTF-8"?>
<svg width="256px" height="256px" viewBox="0 0 256 256" version="1.1" xmlns="http://www.w3.org/2000/svg">
    <g stroke="none" stroke-width="1" fill="none" fill-rule="evenodd">
        <path d="M213.3,42.7 L42.7,42.7 C35.7,42.7 30,48.4 30,55.4 L30,200.6 C30,207.6 35.7,213.3 42.7,213.3 L213.3,213.3 C220.3,213.3 226,207.6 226,200.6 L226,55.4 C226,48.4 220.3,42.7 213.3,42.7 Z" fill="#4CAF50"/>
        <path d="M85.3,85.3 L170.7,85.3 L170.7,106.7 L85.3,106.7 L85.3,85.3 Z M85.3,128 L170.7,128 L170.7,149.3 L85.3,149.3 L85.3,128 Z M85.3,170.7 L170.7,170.7 L170.7,192 L85.3,192 L85.3,170.7 Z" fill="#FFFFFF"/>
    </g>
</svg>