<?xml version="1.0" encoding="UTF-8"?>
<svg width="256px" height="256px" viewBox="0 0 256 256" version="1.1" xmlns="http://www.w3.org/2000/svg">
    <g stroke="none" stroke-width="1" fill="none" fill-rule="evenodd">
        <path d="M120.5,18.2 C115.3,18.2 111,22.5 111,27.7 L111,48.7 C111,53.9 106.7,58.2 101.5,58.2 L27.7,58.2 C22.5,58.2 18.2,62.5 18.2,67.7 L18.2,188.3 C18.2,193.5 22.5,197.8 27.7,197.8 L228.3,197.8 C233.5,197.8 237.8,193.5 237.8,188.3 L237.8,27.7 C237.8,22.5 233.5,18.2 228.3,18.2 L120.5,18.2 Z" fill="#F44336"/>
        <path d="M82.7,96.9 L82.7,159.1 L64.5,159.1 L64.5,96.9 L82.7,96.9 Z M128,96.9 L128,159.1 L109.8,159.1 L109.8,96.9 L128,96.9 Z M173.3,96.9 L173.3,159.1 L155.1,159.1 L155.1,96.9 L173.3,96.9 Z" fill="#FFFFFF"/>
    </g>
</svg>