<?xml version="1.0" encoding="UTF-8"?>
<svg width="256px" height="256px" viewBox="0 0 256 256" version="1.1" xmlns="http://www.w3.org/2000/svg">
    <g stroke="none" stroke-width="1" fill="none" fill-rule="evenodd">
        <path d="M127.8,0 C62.3,0 66.3,28.1 66.3,28.1 L66.4,57.5 L128.7,57.5 L128.7,66.2 L41.9,66.2 C41.9,66.2 0,63.2 0,128.6 C0,194 36.5,192.2 36.5,192.2 L58.1,192.2 L58.1,161.9 C58.1,161.9 57,125.4 94.4,125.4 L156.1,125.4 C156.1,125.4 191.9,125.8 191.9,90.9 L191.9,34.3 C191.9,34.3 197.6,0 127.8,0 Z M94.9,20.1 C100.6,20.1 105.2,24.7 105.2,30.4 C105.2,36.1 100.6,40.7 94.9,40.7 C89.2,40.7 84.6,36.1 84.6,30.4 C84.6,24.7 89.2,20.1 94.9,20.1 Z" fill="#00A3E0"/>
        <path d="M128.2,256 C193.7,256 189.7,227.9 189.7,227.9 L189.6,198.5 L127.3,198.5 L127.3,189.8 L214.1,189.8 C214.1,189.8 256,192.8 256,127.4 C256,62 219.5,63.8 219.5,63.8 L197.9,63.8 L197.9,94.1 C197.9,94.1 199,130.6 161.6,130.6 L99.9,130.6 C99.9,130.6 64.1,130.2 64.1,165.1 L64.1,221.7 C64.1,221.7 58.4,256 128.2,256 Z M161.1,235.9 C155.4,235.9 150.8,231.3 150.8,225.6 C150.8,219.9 155.4,215.3 161.1,215.3 C166.8,215.3 171.4,219.9 171.4,225.6 C171.4,231.3 166.8,235.9 161.1,235.9 Z" fill="#FFD43B"/>
    </g>
</svg>