<?xml version="1.0" encoding="UTF-8"?>
<svg width="256px" height="256px" viewBox="0 0 256 256" version="1.1" xmlns="http://www.w3.org/2000/svg">
    <g stroke="none" stroke-width="1" fill="none" fill-rule="evenodd">
        <path d="M41,5 L215,5 C232.673112,5 247,19.326888 247,37 L247,219 C247,236.673112 232.673112,251 215,251 L41,251 C23.326888,251 9,236.673112 9,219 L9,37 C9,19.326888 23.326888,5 41,5 Z" fill="#E44D26"/>
        <path d="M128,208.5 L76.5,195.5 L71,134 L185,134 L179.5,195.5 L128,208.5 Z M128,182 L157,175 L160,155 L96,155 L99,175 L128,182 Z M128,89 L89,89 L92,109 L128,109 L128,89 Z M128,47.5 L84.5,47.5 L87.5,67.5 L128,67.5 L128,47.5 Z" fill="#FFFFFF"/>
    </g>
</svg>